<?xml version="1.0" encoding="UTF-8" standalone="no"?>
<svg width="512px" height="512px" viewBox="0 0 512 512" version="1.1" xmlns="http://www.w3.org/2000/svg" xmlns:xlink="http://www.w3.org/1999/xlink">
    <!-- Generator: Sketch 41.2 (35397) - http://www.bohemiancoding.com/sketch -->
    <title>Slice 2</title>
    <desc>Created with Sketch.</desc>
    <defs></defs>
    <g id="Page-1" stroke="none" stroke-width="1" fill="none" fill-rule="evenodd">
        <g id="Group" transform="translate(854.000000, 256.000000) rotate(45.000000) translate(-854.000000, -256.000000) translate(491.000000, -107.000000)"></g>
        <g id="Slice-1" fill="#282828">
            <path d="M219.428571,329.142857 L292.571429,329.142857 L292.571429,402.285714 L219.428571,402.285714 L219.428571,329.142857 Z M365.714286,201.142857 C365.714286,279.405714 292.571429,292.571429 292.571429,292.571429 L219.428571,292.571429 C219.428571,272.457143 235.885714,256 256,256 L274.285714,256 C284.525714,256 292.571429,247.954286 292.571429,237.714286 L292.571429,201.142857 C292.571429,190.902857 284.525714,182.857143 274.285714,182.857143 L237.714286,182.857143 C227.474286,182.857143 219.428571,190.902857 219.428571,201.142857 L219.428571,219.428571 L146.285714,219.428571 C146.285714,164.571429 201.142857,109.714286 256,109.714286 C310.857143,109.714286 365.714286,146.285714 365.714286,201.142857 Z M256,47.5428571 C370.834286,47.5428571 464.457143,141.165714 464.457143,256 C464.457143,370.834286 370.834286,464.457143 256,464.457143 C140.955784,464.25584 47.7441598,371.044216 47.5428571,256 C47.5428571,141.165714 141.165714,47.5428571 256,47.5428571 L256,47.5428571 Z M256,0 C114.834286,0 0,114.834286 0,256 C0,397.165714 114.834286,512 256,512 C397.165714,512 512,397.165714 512,256 C512,114.834286 397.165714,0 256,0 Z" id="Shape"></path>
        </g>
    </g>
</svg>